<mxfile host="app.diagrams.net" modified="2021-02-06T14:56:34.061Z" agent="5.0 (Macintosh; Intel Mac OS X 11_2_0) AppleWebKit/537.36 (KHTML, like Gecko) Chrome/88.0.4324.146 Safari/537.36" etag="fNlZ1kOA4b8Z2tdPpiFX" version="14.2.9" type="github">
  <diagram id="Qi4w61DWHMvkJgD8VTLN" name="ページ1">
    <mxGraphModel dx="1906" dy="1037" grid="1" gridSize="10" guides="1" tooltips="1" connect="1" arrows="1" fold="1" page="1" pageScale="1" pageWidth="827" pageHeight="1169" math="0" shadow="0">
      <root>
        <mxCell id="0" />
        <mxCell id="1" parent="0" />
        <mxCell id="D62SvgqvLaDQjdp1viVQ-1" value="開始" style="strokeWidth=2;html=1;shape=mxgraph.flowchart.start_1;whiteSpace=wrap;" vertex="1" parent="1">
          <mxGeometry x="320" y="60" width="200" height="60" as="geometry" />
        </mxCell>
        <mxCell id="D62SvgqvLaDQjdp1viVQ-2" value="" style="endArrow=classic;html=1;" edge="1" parent="1">
          <mxGeometry width="50" height="50" relative="1" as="geometry">
            <mxPoint x="419.5" y="120" as="sourcePoint" />
            <mxPoint x="420" y="210" as="targetPoint" />
          </mxGeometry>
        </mxCell>
        <mxCell id="D62SvgqvLaDQjdp1viVQ-4" value="INPUT number" style="rounded=1;whiteSpace=wrap;html=1;absoluteArcSize=1;arcSize=14;strokeWidth=2;" vertex="1" parent="1">
          <mxGeometry x="340" y="210" width="170" height="50" as="geometry" />
        </mxCell>
        <mxCell id="D62SvgqvLaDQjdp1viVQ-5" value="" style="endArrow=classic;html=1;" edge="1" parent="1">
          <mxGeometry width="50" height="50" relative="1" as="geometry">
            <mxPoint x="419.5" y="260" as="sourcePoint" />
            <mxPoint x="420" y="330" as="targetPoint" />
          </mxGeometry>
        </mxCell>
        <mxCell id="D62SvgqvLaDQjdp1viVQ-15" value="変数定義&lt;br&gt;&lt;br&gt;number: 入力値&lt;br&gt;count: ループに使用するカウント" style="rounded=1;whiteSpace=wrap;html=1;absoluteArcSize=1;arcSize=14;strokeWidth=2;align=left;" vertex="1" parent="1">
          <mxGeometry x="590" y="100" width="260" height="100" as="geometry" />
        </mxCell>
        <mxCell id="D62SvgqvLaDQjdp1viVQ-19" value="count &amp;lt; 5&amp;nbsp;" style="strokeWidth=2;html=1;shape=mxgraph.flowchart.decision;whiteSpace=wrap;" vertex="1" parent="1">
          <mxGeometry x="310" y="480" width="180" height="70" as="geometry" />
        </mxCell>
        <mxCell id="D62SvgqvLaDQjdp1viVQ-20" value="" style="endArrow=classic;html=1;" edge="1" parent="1">
          <mxGeometry width="50" height="50" relative="1" as="geometry">
            <mxPoint x="399.5" y="550" as="sourcePoint" />
            <mxPoint x="400" y="600" as="targetPoint" />
          </mxGeometry>
        </mxCell>
        <mxCell id="D62SvgqvLaDQjdp1viVQ-22" value="" style="endArrow=classic;html=1;" edge="1" parent="1">
          <mxGeometry width="50" height="50" relative="1" as="geometry">
            <mxPoint x="310" y="730" as="sourcePoint" />
            <mxPoint x="410" y="440" as="targetPoint" />
            <Array as="points">
              <mxPoint x="240" y="730" />
              <mxPoint x="240" y="440" />
            </Array>
          </mxGeometry>
        </mxCell>
        <mxCell id="D62SvgqvLaDQjdp1viVQ-23" value="Yes" style="text;html=1;align=center;verticalAlign=middle;resizable=0;points=[];autosize=1;" vertex="1" parent="1">
          <mxGeometry x="415" y="560" width="40" height="20" as="geometry" />
        </mxCell>
        <mxCell id="D62SvgqvLaDQjdp1viVQ-24" value="" style="endArrow=classic;html=1;exitX=1;exitY=0.5;exitDx=0;exitDy=0;exitPerimeter=0;" edge="1" parent="1" source="D62SvgqvLaDQjdp1viVQ-19">
          <mxGeometry width="50" height="50" relative="1" as="geometry">
            <mxPoint x="631" y="510" as="sourcePoint" />
            <mxPoint x="400" y="810" as="targetPoint" />
            <Array as="points">
              <mxPoint x="631" y="510" />
              <mxPoint x="640" y="810" />
            </Array>
          </mxGeometry>
        </mxCell>
        <mxCell id="D62SvgqvLaDQjdp1viVQ-27" value="No" style="text;html=1;align=center;verticalAlign=middle;resizable=0;points=[];autosize=1;" vertex="1" parent="1">
          <mxGeometry x="500" y="480" width="30" height="20" as="geometry" />
        </mxCell>
        <mxCell id="D62SvgqvLaDQjdp1viVQ-28" value="count ← 0" style="rounded=1;whiteSpace=wrap;html=1;absoluteArcSize=1;arcSize=14;strokeWidth=2;" vertex="1" parent="1">
          <mxGeometry x="335" y="330" width="170" height="50" as="geometry" />
        </mxCell>
        <mxCell id="D62SvgqvLaDQjdp1viVQ-29" value="" style="endArrow=classic;html=1;exitX=0.5;exitY=1;exitDx=0;exitDy=0;" edge="1" parent="1" source="D62SvgqvLaDQjdp1viVQ-28" target="D62SvgqvLaDQjdp1viVQ-19">
          <mxGeometry width="50" height="50" relative="1" as="geometry">
            <mxPoint x="430" y="460" as="sourcePoint" />
            <mxPoint x="480" y="410" as="targetPoint" />
          </mxGeometry>
        </mxCell>
        <mxCell id="D62SvgqvLaDQjdp1viVQ-33" value="PRINT number" style="rounded=1;whiteSpace=wrap;html=1;absoluteArcSize=1;arcSize=14;strokeWidth=2;" vertex="1" parent="1">
          <mxGeometry x="315" y="700" width="170" height="50" as="geometry" />
        </mxCell>
        <mxCell id="D62SvgqvLaDQjdp1viVQ-35" value="終了" style="strokeWidth=2;html=1;shape=mxgraph.flowchart.start_1;whiteSpace=wrap;" vertex="1" parent="1">
          <mxGeometry x="200" y="780" width="200" height="60" as="geometry" />
        </mxCell>
        <mxCell id="D62SvgqvLaDQjdp1viVQ-36" value="count ← 1+count" style="rounded=1;whiteSpace=wrap;html=1;absoluteArcSize=1;arcSize=14;strokeWidth=2;" vertex="1" parent="1">
          <mxGeometry x="320" y="600" width="170" height="50" as="geometry" />
        </mxCell>
        <mxCell id="D62SvgqvLaDQjdp1viVQ-38" value="" style="endArrow=classic;html=1;" edge="1" parent="1">
          <mxGeometry width="50" height="50" relative="1" as="geometry">
            <mxPoint x="400" y="650" as="sourcePoint" />
            <mxPoint x="400.5" y="700" as="targetPoint" />
          </mxGeometry>
        </mxCell>
      </root>
    </mxGraphModel>
  </diagram>
</mxfile>
